<svg xmlns="http://www.w3.org/2000/svg" style="display: none;">
  <defs>
    <symbol id="bulaimpact" viewBox="0 0 1316.64 145.78">
      <path fill="currentColor" d="M675.4,9.4c3.8,1.05,34.69,52.77,39.47,59.97,6.66-5.61,34.76-58.81,38.26-58.81h22.97v121.73s-1.65,1.76-1.76,1.76h-18.83s-1.76-1.65-1.76-1.76V51.74l-38.28,56.43-38.28-52.9v78.81h-22.38V9.38c5.54.98,15.81-1.35,20.62,0h-.02v.02Z"/>
      <path fill="currentColor" d="M141.34,132.9c6.09-22.49,35.83-47,59.7-36.68,5.17,2.24,9.22,5.81,8.63,11.97h-18.26c-.85,0-7.44,1.92-7.67,2.97,3.96,14.9,35.26,10.34,37.62-3.62,2.79-16.41-12.17-24.3-26.38-25.28-23.48-1.62-37.92,10.62-53.64,25.93V9.38h65.35c3.09,0,17.78,6.36,20.98,8.44,17,10.98,17.94,38.19-.5,48.49-1.81,1.01-8.9,1.51-8.12,4.81.34,1.42,14.48,4.94,18.24,7.67,16.45,11.99,11.69,41.07-5.67,49.61-1.4.69-11.35,4.48-11.99,4.48h-78.32.05v.02ZM164.89,67.02c18.24-4.97,58.33,3.55,50.09-28.26-1.35-5.19-9.24-10.55-14.16-10.55h-35.92v38.81Z"/>
      <path fill="currentColor" d="M.02,145.83v-48.21l74.18-25.88c1.42-1.9-15.79-6.25-17.41-6.7-7.64-2.15-15.81-4.19-23.57-5.88-9.22-2.01-22.95-2.61-31.23-5.26-.87-.27-1.49-.8-1.99-1.56V0l118.92,72.33L0,145.85H0l.02-.02Z"/>
      <path fill="currentColor" d="M1316.64-.05v52.33c0,.5-1.33,1.3-2.01,1.51-24.39,4.14-49.15,8.05-72.19,17.3l74.21,26.47v48.21l-118.92-73.52L1316.64-.05h0Z"/>
      <path fill="currentColor" d="M473.45,134.06l45.95-122.6c1.81-3.16,26.98-3.23,29.49-.07l45.86,122.67h-22.97c-6.68-6.89-6.7-25.12-15.63-29.08-13-5.77-34.83,3.29-44.48,12.59-2.29,2.2-12.38,16.52-14.1,16.52h-24.14l.02-.02ZM535.85,39.97l-3.55,1.74-21.17,55.88c13.16-4.37,25.6-12.77,40.04-11.76l-15.33-45.86Z"/>
      <path fill="currentColor" d="M287.37,9.4v81.73c0,.71,3.2,10.09,3.87,11.44,6.98,14.44,30.64,15.99,42.65,6.8,3.18-2.45,11.19-13.5,11.19-17.05V11.17c0-.11,1.65-1.76,1.76-1.76h21.19s1.76,1.65,1.76,1.76v85.85c0,1.01-5.97,15.86-7.02,17.66-16.84,28.6-75.03,27.44-93.59,1.65-1.53-2.13-6.54-12.59-6.54-14.62V11.14c0-.11,1.65-1.76,1.76-1.76h22.97v.02Z"/>
      <path fill="currentColor" d="M993.96,134.06h-21.78c-6.27-8.1-7.3-18.88-12.33-27.66-1.94-1.17-40.8-1.21-45.42-.64-1.44.18-2.38-.09-3.48,1.24-3.46,4.16-5.4,19.04-8.47,24.39-.62,1.08-2.24,2.68-3.32,2.68h-18.83c-1.56,0-2.4-4.6-1.53-6.18l44.41-115.35c1.69-2.59,26.25-4.74,26.57,2.75,10.98,36.59,32.9,74.89,43.04,111.09.71,2.56,1.53,4.97,1.12,7.69h.02ZM952.75,85.85l-17.07-47.07-18.26,47.07h35.33Z"/>
      <path fill="currentColor" d="M852.05,10.57c29.06,3.46,44.12,27.5,34.12,55.26-10.39,28.83-40,25.79-65.33,27.07v38.24c0,3.8-17.39,3.55-20.62,2.95-1.35-.25-2.4-.39-2.75-1.97l.98-121.55c16.93,1.46,37.05-1.97,53.59,0ZM819.67,70.57h31.21c.43,0,6.64-3.52,7.57-4.19,11.69-8.42,11.26-27.07-1.81-33.32-.96-.46-6.5-2.47-6.93-2.47h-30.02v40h-.02v-.02Z"/>
      <path fill="currentColor" d="M1072.52,36.79c-1.88-2.04-10.71-5.19-13.71-5.72-36.36-6.22-50.11,33.82-37.57,62.24,8.79,19.93,31.94,27.8,49.31,13.11,2.4-2.04,7.18-8.95,8.24-9.47,4.1-2.06,14.87,5.08,19.52,6.45-3.96,19.61-27.21,31.37-46.06,31.83-48.46,1.17-66.06-43.36-55.53-84.94,9.56-37.8,55.12-53.66,86.68-31.99,4.28,2.93,16.57,15.72,15.29,20.82-.69,2.75-15.56,9.13-18.17,8.99-4.62-.23-5.54-8.72-7.96-11.35h-.02v.02Z"/>
      <path fill="currentColor" d="M380.41,10.57l29.45-1.17-8.28,98.16c4.19,2.79,9.61,5.22,14.74,5.42,6.64.27,15.72-4.19,19.95-3.62,2.2.3,13.89,10.21,13.43,3.18-.16-2.56-3.62-5.79-1.6-9.04,1.37-2.2,18.24-12.61,21.81-14.12v44.12s-1.65,1.76-1.76,1.76h-87.73V10.59h0v-.02Z"/>
      <path fill="currentColor" d="M1196.54,10.57v20h-34.16v101.73s-1.65,1.76-1.76,1.76h-20.62V32.33c0-.11-1.65-1.76-1.76-1.76h-32.38c-1.88-6.91-1.17-13.09,0-20h90.68Z"/>
      <path fill="currentColor" d="M633.6,134.06h-21.78s-1.76-1.65-1.76-1.76V11.17c0-.11,1.65-1.76,1.76-1.76h20.02c3.55,0,.96,14.39,1.03,16.86.5,19.88,3,40.27,3.13,60.13.11,15.93-.53,31.87-2.4,47.69h0v-.02Z"/>
    </symbol>
    <symbol id="projector-portraits" viewBox="0 0 228.42 290.28">
      <path fill="currentColor" d="M75.91,187.14l-.07,97.26c0,3.56-3.1,5.88-6.16,5.88l-7.57-.02c-3.2,0-5.8-2.34-5.8-5.88l.25-154.46c.07-45.26,36.79-81.51,81.55-83.61,48.04-2.25,88.85,34.51,90.27,82.92.69,23.36-7.55,45.63-23.79,62.36-11.95,12.31-26.81,21.09-43.6,25.06-31.83,7.15-64.23-4.73-85.08-29.52ZM197.14,167.94c14.01-21.57,14.43-48.84.68-70.41-11.39-17.88-30.5-29.3-51.73-30.5-31.84-1.81-60.46,19.3-67.56,50.44-4.77,20.97,1.16,42.95,15.63,59.03,13.91,15.45,34.12,23.32,55.04,21.16,19.16-1.98,37.01-12.9,47.94-29.72Z"/>
      <path fill="currentColor" d="M20.42,70.37l-.09,114.21c0,6.4,4.54,11.39,10.02,13.01,2.17.64,3.88.85,6.01,1.15,4.64.65,8.42,4.14,8.57,9.12.17,5.84-4.91,10.18-10.7,10.02-4.73-.13-8.94-1.72-13.35-3.3-6.21-2.22-11.39-6.12-14.68-11.93-2.74-4.83-4.47-10.09-4.47-15.95V5.44C1.72,2.29,4.24,0,7.32,0h86.26c9.25-.02,17.18,4.52,18.46,13.95.76,5.67.74,11.22.51,16.93-.24,6.03-3.55,10.76-9.36,13.01-4.86,1.88-9.54,3.74-14.21,6.25-4.75,2.55-9.96,4.19-15.42,4.23l-36.57.25c-8.54.06-16.56,6.32-16.57,15.74ZM89.6,35.2c2.14-.35,3.14-1.79,3.14-3.65v-7.05c0-1.96-1.26-3.4-3.33-3.4h-37.37c-4.32.01-3.09,5.68-3.14,10.92-.01,1.71,1.34,3.15,3.15,3.15l37.53.03Z"/>
      <path fill="currentColor" d="M101.68,148.56c-6.66-16.24-3.42-34.13,8.28-46.97,7.21-7.91,16.79-12.82,27.37-14.67,2.56-.45,4.44-2.22,4.47-4.67.02-1.8-1.79-5.02-4.37-4.72-11.5,1.33-22.19,6.41-30.76,14.16-17.6,15.9-22.91,41.21-12.71,62.64,1.19,2.5,4.77,2.26,6.43,1.1,2.51-1.76,2.48-4.02,1.31-6.87ZM112.7,164.42c-1.97-1.98-4.95-2.2-6.9-.33-1.7,1.63-2.06,4.7-.24,6.6,3.02,3.15,6.52,5.6,10.22,7.89,2.16,1.34,4.63.67,6.19-1.13,4.64-5.35-4.38-8.11-9.27-13.03Z"/>
      <path fill="currentColor" d="M101.68,148.56c1.17,2.85,1.2,5.11-1.31,6.87-1.66,1.16-5.24,1.4-6.43-1.1-10.2-21.43-4.88-46.73,12.71-62.64,8.57-7.75,19.26-12.83,30.76-14.16,2.58-.3,4.39,2.92,4.37,4.72-.03,2.44-1.91,4.22-4.47,4.67-10.58,1.86-20.16,6.77-27.37,14.67-11.7,12.84-14.94,30.73-8.28,46.97Z"/>
      <path fill="currentColor" d="M112.7,164.42c4.89,4.92,13.91,7.68,9.27,13.03-1.57,1.81-4.03,2.48-6.19,1.13-3.7-2.3-7.2-4.75-10.22-7.89-1.82-1.9-1.46-4.97.24-6.6,1.95-1.87,4.93-1.64,6.9.33Z"/>
    </symbol>
    <symbol id="burefji" viewBox="0 0 264.4 290.28">
      <path fill="currentColor" d="M167.84,33.55c2.06,3.2,5.26,10.06,7.21,12.47.57.69,1.72,1.72,2.4,1.14.69-.57-.23-15.78,0-18.76.46-4.69,3.2-12.7,5.95-16.58,4.69-6.52,17.04-10.06,24.82-10.52,3.77-.23,7.89.69,11.67.46-5.26,3.77-11.32,6.63-17.16,9.38-1.72.8-3.77.69-4.35.91-1.03.46-3.2,3.43-1.83,4.57,1.03.8,4.46-1.6,5.6-.34-2.06,2.97-6.4,5.49-8.58,7.89-2.17,2.4-4.46,6.98-6.75,9.38-.11.11-1.14-.23-1.49,0s.8,1.26.69,1.49c-.57,4.23-6.06,9.15-3.2,13.72l.8-.46v-1.14c.57-.57,1.14-1.14,1.6-1.6.69-.69,2.86-.46,3.09-1.14.11-.46,2.63-4.12,3.09-4.46,4.69-4.12,16.24-8.46,22.42-8.81,10.87-.57,19.56,4.12,28.59,9.61.23.23.57.57.8.8,4.92,6.75,10.06,13.15,11.21,21.73l-1.03-1.37c-5.72-1.49-10.75-5.95-16.13-8.46-1.14-.57-2.4-.34-2.97-.57h-.8c.34-2.4-4.35-3.2-6.4-4-.34-.23-.57-.57-.8-.8-1.72-1.37-2.86-3.09-5.6-3.2-.46-.23-1.14-.57-1.6-.8-.34-.91-1.03-2.06-1.6-.8h-.8c-.46,0-1.6-.23-1.6.34l3.2,5.26c-10.64-1.6-21.39-.69-32.02,0,0,.69-.91,1.83-.91,2.29v1.6c.69,2.74,2.97,1.49,4,2.06,9.38,5.15,22.19,26.31,26.31,36.48,1.83,4.69,4.23,11.78,5.26,15.67,2.17,8.69,3.32,17.73,3.09,26.65,0,2.29.23,8.35,0,9.61-.23,1.49-3.89,3.09-3.32,6.06-.23.34-.57.57-.8.8l-3.2,3.2s-.91,1.03-1.6,1.6c-7.09,4.35-13.5,9.72-21.27,12.92-18.87,7.66-40.26,8.58-57.76,4.57-13.15-2.97-24.13-8.46-35.23-15.9-2.17-1.49-2.17-1.6-4-3.2-1.49-1.26-2.63-3.2-4.8-4-1.6-1.49-2.52-2.4-4-4l-8.81-13.72c4.35-.34,10.06-2.97,14.07-3.2,13.61-1.14,18.87,2.4,30.99,5.26,13.38,3.2,18.53-.91,30.65-4,1.94-.46,2.74-1.14,2.97-1.14,7.55-1.49,13.61-.34,20.93,1.49,2.52.57,11.09,4.12,12.81,4.12h12.47c.46,1.49-1.03,2.52-1.14,3.66-.91,6.06-1.37,11.44-4.12,17.27-.34.8-1.37,1.37-1.94,2.06,0,.69,1.14.57,1.6.34,1.14-.34,4.46-3.09,5.6-4,18.53-15.67,9.15-47.35.69-66.22-.34-.8.11-1.83,0-2.06-.34-.46-1.83-.46-2.29-.91-4.69-4.92-8.69-13.72-13.72-19.33l-1.6-1.6s-1.14-1.26-1.6-1.6c-.69-1.26-4.57-5.72-5.6-4.8v3.2l-4.69,12.7c-2.06,2.06-3.32,5.6-4.92,7.78-.69.91-1.6.46-2.52.46-1.37-3.09,1.6-4.23,1.6-4.57.69-9.49,2.63-8.12,5.38-14.98,0-.23,1.03-3.55,1.03-3.89v-.8c0-1.26-.69-2.29-2.06-2.4-.23,0-.23,1.37-.91,1.6-5.95,2.06-12.81,5.38-17.84,8.46-1.49.91-2.63,5.83-5.72,4l.46-2.86h-2.06c-.11-.34,1.26-1.14.46-1.6-2.4,4.46-8.35,5.38-6.86,11.21-1.14,1.83-1.94,2.06-3.2,3.2-2.06,2.06-5.26,2.74-5.6,6.4-.23.23-.57.57-.8.8-.23.23-2.29,0-2.4,3.2-.23.23-.46.57-.8.8-1.03.8-2.06,1.72-3.2,2.4,0-4.35-.34-8.58.34-12.92.57-3.66,3.77-12.12,5.72-15.21,4-6.29,6.98-6.86,12.58-9.84,2.86-1.49,1.83-.57,4.35-1.37,1.14-.34,1.14-1.49,1.83-1.72,6.98-2.63,17.96.8,25.16,0l-4-3.2s-.57-.57-.8-.8c-4.12-4-7.78-6.75-13.15-9.04l-20.7-6.29c2.52-.69,5.38-1.83,3.55-4.8-3.89-.57-28.25,5.03-29.39,4-2.17-2.06,3.32-3.89,3.77-4.23,9.84-7.89,11.89-8.92,24.82-6.98.46,0,0-1.6,1.49-1.72.69,0,6.75,1.37,7.21,1.6.91.57.23,2.06.57,2.4.57.46,3.66-.23,5.03.23.69.23,5.49,4.57,6.4,5.26.91.69,2.74.8,3.77,1.83.23.23.57.46.8.8.34.34-.34,2.17,2.4,2.4.23.23.57.46.8.8v.34Z"/>
      <path fill="currentColor" d="M72.11,151.8c-2.06-2.97-5.38-9.15-7.09-12.58-5.72-11.09-9.26-21.73-12.01-33.85l1.94-3.43c41.29.23,82.58-.23,123.75,0,1.6,0,3.2-.57,4.69-.57,5.15,0,10.87,1.14,16.13.69,1.83.46,2.29,3.89,2.06,5.49l-139.53.69c-1.83,1.26,3.43,15.55,4.46,18.18,2.29,6.29,6.86,14.98,11.21,19.67.8.91.57.69,1.6,1.6.23.23.57.57.8.8-.8,3.09,1.37,2.29,2.4,3.2.57.57,1.03,1.03,1.6,1.6.46,2.4,3.2,5.15,5.6,5.6,4.35,3.66,9.15,6.86,13.72,10.41,8.23,6.52,24.48,13.84,34.88,14.53.57,0,.46,1.49,1.03,1.6,2.86.57,5.49-2.63,8.35,2.4.8-4.12,6.63-1.49,9.26-1.6,9.61-.46,18.07-3.32,25.96-4.92,1.83-.34,4.12,1.03,4.23.8.23-.23-.34-1.72.11-2.29.57-.57,3.66-.57,4.92-1.03,2.74-1.14,7.66-4.23,10.06-5.49,4.12-2.17,6.4-4.35,9.84-7.32.23-.23.57-.57.8-.8,1.49,0,2.17-.57,3.2-1.49,3.2-2.63,7.66-6.63,10.41-9.61.91-1.03,2.17-2.74,2.4-4.23.23-.23.57-.57.8-.8,6.18-6.75,11.89-15.1,16.01-23.22,1.37-2.63,4-12.24,4.12-15.1,0-1.6,0-3.55-2.06-3.55h-17.27c0-.91.8-1.83.57-2.74,0-.57-2.52-2.97-.23-2.97h24.13c2.74,0,2.17,4.12,1.94,5.95-1.37,10.64-7.89,27.45-13.61,36.26l-12.92,16.47c-.8.8-1.49,1.6-2.4,2.4-5.6,3.2-9.95,8.01-15.33,11.55-11.32,7.43-21.5,10.06-33.4,14.87-1.26.57-2.17,1.14-2.74,2.52h-.8c-10.06,4-14.3,12.7-15.67,23.22-.23,1.37.57,2.97.34,4.46-.46,4.69-2.74,12.35,0,16.13-4,1.49,0,1.6,0,3.2.34,3.2-1.03,6.63-.8,8.92,0,.91.91,6.63,1.14,7.78,1.14,5.83,2.4,7.66,6.06,12.01.46.57,2.63,2.63,3.2,3.2,7.32,6.52,11.44,4.46,18.87,8.81.69.11.23-1.14.57-1.37,1.72-1.14,12.24,2.52,15.1,2.52.91.69,1.14,3.89.8,4.46,0,0-.91-.57-1.6-.23-7.21,3.43-7.55.34-12.47,1.03-24.48,3.66-52.38,3.66-77.31.34-3.2-.46-5.15,2.06-7.66-2.86v-.8c.91-3.09,6.18-3.43,9.26-3.89,3.32-.46,8.35-1.03,12.7-1.94,14.3-3.32,21.84-12.35,22.65-26.99.69-11.21,1.49-29.85-.57-40.6-1.26-6.75-3.55-9.95-8.23-14.3-2.74-2.52-1.49-1.26-4.35-2.86-.57-.34-.57-1.49-1.49-1.94-1.72-.8-6.4-1.49-8.69-2.29-8.58-3.09-19.79-7.32-28.14-12.12-4.57-2.74-8.46-6.52-13.27-8.92-.34-.23-.57-.57-.8-.8-1.6-1.37-3.89-4-5.6-5.6-.23-.23-.57-.57-.8-.8-1.37-2.63-4.92-5.15-6.4-7.21-.23-.23-.57-.46-.8-.8l.34.57Z"/>
      <path fill="currentColor" d="M26.93,58.48s9.26-4.35,10.29-4.57c24.82-8.01,51.35,3.32,59.59,28.59,1.14,3.55,3.89,9.84-2.52,8.35-.69-.11-3.77-9.84-5.03-12.01-2.97-5.38-5.83-7.66-9.95-11.32-.34-.23-.57-.57-.8-.8-14.64-11.89-30.31-14.3-46.66-3.2-.91.57-1.14.91-2.4,1.6-.8.46-1.37.69-1.6,1.6-.23.23-.57.57-.8.8-1.83,0-3.09,1.26-3.2,3.2-.23.23-.57.57-.8.8-15.33,16.81-15.1,39.46.91,55.81.91.91,2.06.57,1.49,2.97-.11.23-.57.57-.8.8-2.52,3.09-5.6-.34-8.01-2.4-.69-.57-1.03-1.03-1.6-1.6-.57-3.2-3.2-5.83-4.46-8.81-7.43-18.3-3.66-37.86,8.46-53.07.91-1.03,1.37-1.49,2.4-2.4,1.37-1.03,3.43-1.14,4.8-2.06.8-.57.69-1.94.8-1.94l-.11-.34Z"/>
      <path fill="currentColor" d="M72.11,151.8l-8.23-11.44c-3.09-6.86-14.18-31.45-11.44-37.63.34-.8,1.72-2.06,2.52-2.29l142.28-.23c.91,0,4.8.57,5.03.91.34.34,1.49,7.09-.34,7.09H63.19c.69,7.21,3.09,15.9,6.06,22.53,1.26,2.74,6.86,13.27,8.46,15.33,0,.11,2.29-.46,1.6,1.6-1.03-.91-.8-.69-1.6-1.6-4.35-4.69-8.81-13.38-11.21-19.67-.91-2.63-6.29-16.93-4.46-18.18l139.53-.69c.11-1.6-.34-4.92-2.06-5.49-5.26.34-10.98-.69-16.13-.69-1.49,0-2.97.57-4.69.57-41.29-.34-82.58.11-123.75,0l-1.94,3.43c2.74,12.12,6.18,22.76,12.01,33.85,1.83,3.43,5.03,9.61,7.09,12.58Z"/>
      <path fill="currentColor" d="M46.26,103.54c.57.8-1.94,4.23-2.52,5.03-2.17,3.32-8.12,11.67-10.75,14.18-.69.69-1.6,1.49-2.52,1.6-3.09.23-11.09-15.1-8.81-18.41,1.03-1.49,23.22-4.23,24.59-2.4Z"/>
      <path fill="currentColor" d="M32.65,75.4c.57-7.78,12.01-9.84,18.53-9.61v24.93c0,1.83-5.6-3.66-6.06-4-.8-.57-1.83-.57-2.06-.8-3.77-2.97-7.43-6.75-10.41-10.41v-.11Z"/>
      <path fill="currentColor" d="M72.11,70.6s.57.57.8.8c1.14.8,1.26,3.32,1.83,3.89.8.69,3.09-.8,2.17,2.86-.11.46-5.38,3.55-5.6,5.38-.34.23-.69,1.03-1.6,1.6-.34.23-1.72.34-2.63.91-2.74,1.83-5.03,5.26-8.58,4.69.34-3.55-.23-22.65,2.97-23.33,3.66-.91,6.75,4.12,10.75,3.32l-.11-.11Z"/>
      <path fill="currentColor" d="M35.85,86.61l4.8,5.26,3.2,1.94s.57.57.8.8l-.46,2.4c-2.97.69-22.19,1.72-22.87.69v-7.32l3.09-9.49c.23-.34.34-1.03.8-1.26,2.29-1.26,8.69,5.38,10.52,6.86l.11.11Z"/>
      <path fill="currentColor" d="M88.12,145.4c-3.89-4.23-7.21-8.69-10.41-13.27-.46-2.06,5.6-2.86,7.21-3.2,6.29-1.49,14.07-2.52,20.47-1.94,7.66.69,14.87,5.26,21.96,6.18,15.44,2.06,27.11-7.66,43.23-6.18,11.55,1.03,22.19,8.92,34.2,5.6.69,8.81-2.4,17.27-6.4,24.93-.46.11-1.72.23-1.6-.34.57-.69,1.6-1.26,1.94-2.06,2.74-5.72,3.2-11.21,4.12-17.27.11-1.14,1.72-2.06,1.14-3.66h-12.47c-1.6,0-10.29-3.55-12.81-4.12-7.32-1.72-13.38-2.97-20.93-1.49-.23,0-1.03.69-2.97,1.14-12.12,3.09-17.27,7.32-30.65,4-12.12-2.86-17.38-6.4-30.99-5.26-4,.34-9.72,2.86-14.07,3.2l8.81,13.72h.23Z"/>
      <path fill="currentColor" d="M86.52,167.13c4.8,2.29,8.69,6.18,13.27,8.92,8.35,4.92,19.56,9.04,28.14,12.12,2.29.8,6.98,1.49,8.69,2.29.91.46.91,1.6,1.49,1.94,2.86,1.6,1.6.46,4.35,2.86,4.69,4.23,6.98,7.43,8.23,14.3,2.06,10.64,1.26,29.39.57,40.6-.91,14.75-8.46,23.67-22.65,26.99-4.23,1.03-9.26,1.6-12.7,1.94-3.09.34-8.35.8-9.26,3.89,0,0-.57.23-.57.34,0,.23.46.23.57.46,2.52,4.92,4.46,2.4,7.66,2.86,24.82,3.2,52.72,3.2,77.31-.34,4.92-.69,5.15,2.4,12.47-1.03.69-.34,1.6.34,1.6.23.34-.57.11-3.77-.8-4.46-2.86,0-13.5-3.66-15.1-2.52-.34.23.23,1.49-.57,1.37-7.55-4.35-11.55-2.29-18.87-8.81,4.92,6.29,33.51,5.6,35.8,10.41,1.14,2.4.34,5.72-2.63,6.29-6.29,1.14-16.47,1.6-23.1,1.83-20.36.8-47.58,1.26-67.48-.91-5.03-.57-12.12-4.8-5.6-8.69,5.15-2.97,20.01-3.09,27.33-5.72,9.95-3.55,13.61-10.41,14.87-20.59,1.37-11.09,2.52-41.75-2.06-51.01-5.49-10.98-16.13-11.44-26.31-15.55-13.27-5.38-23.45-10.52-34.43-19.9l-.23-.11Z"/>
      <path fill="currentColor" d="M212.1,166.33c-3.55,2.97-5.83,5.15-9.84,7.32-2.4,1.26-7.32,4.46-10.06,5.49-1.14.46-4.35.46-4.92,1.03-.46.57,0,1.94-.11,2.29-.11.23-2.4-1.14-4.23-.8-7.78,1.49-16.35,4.46-25.96,4.92-2.63.11-8.46-2.52-9.26,1.6-2.86-5.03-5.49-1.83-8.35-2.4-.57,0-.46-1.6-1.03-1.6-10.41-.69-26.76-8.01-34.88-14.53,34.31,20.93,75.71,20.01,108.65-3.2v-.11Z"/>
      <path fill="currentColor" d="M229.82,149.4c8.69-12.01,18.07-25.73,18.53-41.06h-18.07c-1.14,0-2.4-7.21-.8-7.21h27.33c3.89,0,0,14.64-.69,17.04-4.35,16.47-13.72,30.54-25.5,42.43l12.92-16.47c5.72-8.81,12.24-25.62,13.61-36.26.23-1.94.8-5.95-1.94-5.95h-24.13c-2.4,0,0,2.29.23,2.97.23.91-.57,1.83-.57,2.74h17.27c2.06,0,2.06,1.94,2.06,3.55-.11,2.86-2.74,12.47-4.12,15.1-4.12,8.12-9.84,16.47-16.01,23.22l-.11-.11Z"/>
      <path fill="currentColor" d="M215.3,155.01c-32.37,28.02-81.09,28.25-114.26,1.6,11.09,7.43,22.07,12.92,35.23,15.9,17.5,3.89,38.89,3.09,57.76-4.57,7.78-3.2,14.18-8.58,21.27-12.92Z"/>
      <path fill="currentColor" d="M185.56,52.87c6.4,1.14,13.27,8.69,17.27,13.72,9.84,12.58,17.96,30.99,21.04,46.55,1.49,7.21,3.43,22.42,1.83,29.28-.57,2.74-3.09,5.03-4.69,6.98-.57-2.97,3.09-4.57,3.32-6.06.11-1.26,0-7.32,0-9.61.11-8.92-.91-18.07-3.09-26.65-1.03-4-3.32-11.09-5.26-15.67-4.12-10.18-16.93-31.22-26.31-36.48-1.03-.57-3.32.69-4-2.06h-.11Z"/>
      <path fill="currentColor" d="M175.84,192.06c-3.43,2.52-7.09,4.12-9.49,7.78-6.86,10.18-5.6,41.29-4.12,53.75.69,5.49,1.6,9.49,4.8,14.07-3.77-4.35-4.92-6.18-6.06-12.01-.23-1.14-1.03-6.75-1.14-7.78-.11-2.29,1.14-5.72.8-8.92-.11-1.49-4.12-1.6,0-3.2-2.63-3.77-.46-11.44,0-16.13.11-1.6-.57-3.09-.34-4.46,1.37-10.52,5.6-19.21,15.67-23.22l-.11.11Z"/>
      <path fill="currentColor" d="M202.38,84.21s1.94.57,2.29.91c.11.11-.34,1.26,0,2.06,8.46,18.87,17.84,50.67-.69,66.22,16.13-20.13,7.66-47.92-1.6-69.19Z"/>
      <path fill="currentColor" d="M72.11,70.6c-4,.8-7.09-4.12-10.75-3.32-3.09.8-2.52,19.79-2.97,23.33,3.55.57,5.83-2.97,8.58-4.69.91-.57,2.29-.69,2.63-.91-7.43,3.77-13.5,15.67-12.92-.46,0-2.52,1.6-18.76,2.4-19.33,2.17-1.6,10.87,3.77,12.92,5.26l.11.11Z"/>
      <path fill="currentColor" d="M26.93,58.48s-.23-1.14.57-1.6c25.5-15.78,58.79-3.66,69.88,23.33.69,1.72,2.86,8.69,2.74,10.18,0,2.86-5.83,2.74-7.55.34-2.06-2.97-3.77-11.09-6.4-15.33-1.72-2.74-4.57-5.72-6.98-7.89,4.23,3.66,7.09,5.95,9.95,11.32,1.26,2.17,4.35,11.89,5.03,12.01,6.4,1.49,3.66-4.8,2.52-8.35-8.23-25.28-34.77-36.6-59.59-28.59-1.03.34-9.84,4.35-10.29,4.57,0,0,0,1.49-.8,1.94-1.37.91-3.43,1.03-4.8,2.06,2.29-2.17,3.32-2.52,5.6-4h.11Z"/>
      <path fill="currentColor" d="M136.38,31.94s-.23-1.03.23-1.37c.91-.69,2.29-.34,2.97-1.49-4.12-1.72-30.88,4.8-32.14,3.66,1.37-4,6.18-7.78,9.72-9.95,16.24-10.18,33.97-7.21,46.66,6.75-.91-1.03-2.74-1.14-3.77-1.83-.8-.57-5.72-5.03-6.4-5.26-1.37-.46-4.57.23-5.03-.23-.34-.34.34-1.83-.57-2.4-.46-.23-6.52-1.6-7.21-1.6-1.49,0-1.14,1.72-1.49,1.72-12.92-1.94-14.98-.91-24.82,6.98-.46.34-5.83,2.17-3.77,4.23,1.03,1.03,25.5-4.69,29.39-4,1.83,3.09-1.14,4.12-3.55,4.8l20.7,6.29c5.38,2.29,8.92,5.03,13.15,9.04-10.75-7.78-23.22-11.67-36.26-13.72,0-1.37,1.94-1.26,2.4-1.6h-.23Z"/>
      <path fill="currentColor" d="M171.04,48.07l4,3.2c-7.09.91-18.18-2.52-25.16,0-.69.23-.69,1.37-1.83,1.72-2.52.8-1.49-.11-4.35,1.37-5.6,2.97-8.58,3.55-12.58,9.84-1.94,3.09-5.15,11.44-5.72,15.21-.69,4.35-.23,8.58-.34,12.92,1.14-.69,2.17-1.6,3.2-2.4-.91.34-2.63,6.4-4,4.8-.57-.57-.91-8.58-.8-10.06.69-15.55,11.32-30.65,26.53-34.54,8.01-2.06,15.33-1.26,23.33.46-.23-1.14-1.6-1.6-2.4-2.4l.11-.11Z"/>
      <path fill="currentColor" d="M24.53,81.01l-2.97,9.49v7.32c.46,1.03,19.67,0,22.76-.69l.46-2.4c1.26,1.26,4.12,2.06,1.03,3.89-4.57-.8-22.42,2.63-25.28.57-3.32-2.29,1.72-15.33,4.12-18.18h-.11Z"/>
      <path fill="currentColor" d="M167.84,33.55l8.81,12.12c-.69-7.43-1.14-13.5.34-20.93C180.3,8.5,193.91.38,210.04-.31c1.14,0,14.87,0,12.47,3.2l-24.93,11.32c-.46,1.72,10.18-.23,7.21,2.4-.11.11-1.94,0-3.32,1.14-5.26,4.46-9.84,12.12-14.41,15.78-.11.11-.23,1.37-.8,1.6,0-.23-1.03-1.26-.69-1.49.34-.34,1.37,0,1.49,0,2.17-2.4,4.57-6.98,6.75-9.38,2.17-2.4,6.52-4.92,8.58-7.89-1.14-1.14-4.57,1.26-5.6.34-1.37-1.14.69-4,1.83-4.57.57-.23,2.63,0,4.35-.91,5.83-2.74,11.89-5.6,17.16-9.38-3.77.23-7.89-.69-11.67-.46-7.89.46-20.24,4-24.82,10.52-2.74,3.89-5.49,11.78-5.95,16.58-.34,3.09.69,18.3,0,18.76-.69.46-1.94-.57-2.4-1.14-1.94-2.4-5.15-9.26-7.21-12.47l-.23-.11Z"/>
      <path fill="currentColor" d="M216.9,43.15l4,7.21c-12.01-1.83-23.56-2.52-35.45.8,0-.57.8-1.6.91-2.29,10.64-.8,21.39-1.6,32.02,0l-3.2-5.26c0-.69,1.14-.46,1.6-.34l.11-.11Z"/>
      <path fill="currentColor" d="M242.63,40.75c-9.04-5.49-17.61-10.29-28.59-9.61-6.29.34-17.73,4.69-22.42,8.81-.34.34-2.97,4.12-3.09,4.46-.23.8-2.4.57-3.09,1.14,16.7-18.18,37.63-21.84,57.19-4.8Z"/>
      <path fill="currentColor" d="M25.33,130.07c.69-2.4-.57-2.06-1.49-2.97-16.01-16.35-16.24-39-.91-55.81-12.01,14.98-13.38,37.63-1.14,53.07,2.17,2.74,5.26,2.4,3.55,5.72Z"/>
      <path fill="currentColor" d="M78.51,66.48c-14.07-10.87-31.11-11.09-46.66-3.2,16.47-10.98,32.02-8.69,46.66,3.2Z"/>
      <path fill="currentColor" d="M32.65,75.4s-1.83-.57-1.6-1.94c4.92-6.18,12.92-10.75,20.93-8.58v26.53c-4.8.8-5.38-3.43-8.81-5.6.23.11,1.26.23,2.06.8.46.34,6.06,5.95,6.06,4v-24.93c-6.4-.23-17.96,1.94-18.53,9.61l-.11.11Z"/>
      <path fill="currentColor" d="M175.84,57.68s-1.03,3.66-1.03,3.89c-2.74,6.86-4.69,5.49-5.38,14.98,0,.23-2.86,1.49-1.6,4.57.91,0,1.72.46,2.52-.46,1.6-2.17,2.86-5.72,4.92-7.78l4.69-12.7c-1.14,9.84-5.95,18.07-12.92,24.93-2.86-2.17,3.66-25.28,8.81-27.33v-.11Z"/>
      <path fill="currentColor" d="M228.22,163.13c-17.5,16.35-30.08,20.36-51.47,28.94.57-1.37,1.49-1.94,2.74-2.52,11.78-4.92,22.07-7.55,33.4-14.87,5.38-3.55,9.72-8.35,15.33-11.55Z"/>
      <path fill="currentColor" d="M148.51,65.68h1.26l-.46,2.86c2.97,1.94,4.12-3.09,5.72-4,5.03-3.09,12.01-6.4,17.84-8.46.69-.23.69-1.6.91-1.6,1.37,0,2.06,1.14,2.06,2.4-10.87,1.14-19.56,8.81-27.79,15.33l.46-6.4v-.11Z"/>
      <path fill="currentColor" d="M147.71,65.68c-.46,1.83-3.89,4-4.35,4.92-.8,1.49-.8,2.74-2.06,4.8-1.49-5.83,4.46-6.86,6.86-11.21.8.46-.57,1.26-.46,1.6v-.11Z"/>
      <path fill="currentColor" d="M229.02,150.2c-.23,1.49-1.49,3.2-2.4,4.23-2.86,3.09-7.21,6.98-10.41,9.61-1.14.91-1.72,1.37-3.2,1.49,5.6-4.8,10.98-9.84,16.13-15.33h-.11Z"/>
      <path fill="currentColor" d="M227.42,48.87c2.06.8,6.75,1.72,6.4,4-3.2-1.49-4-2.29-6.4-4Z"/>
      <path fill="currentColor" d="M71.19,83.41c.23-1.83,5.49-4.92,5.6-5.38.91-3.66-1.49-2.17-2.17-2.86-.57-.46-.69-3.09-1.83-3.89,7.43,6.29,5.72,6.63-1.6,12.12Z"/>
      <path fill="currentColor" d="M185.56,61.68c-1.6-1.49-3.43-3.43-5.6-3.2v-1.6c1.14-.8,4.92,3.55,5.6,4.8Z"/>
      <path fill="currentColor" d="M82.51,151.8c-1.03-.91-3.2-.11-2.4-3.2,1.14,1.03,2.06,1.6,2.4,3.2Z"/>
      <path fill="currentColor" d="M131.58,85.81c0,2.06-1.37,2.29-2.4,3.2,0-3.2,2.17-2.97,2.4-3.2Z"/>
      <path fill="currentColor" d="M24.53,130.87c-3.66,4.35-5.03,1.03-8.01-2.4,2.4,2.06,5.6,5.49,8.01,2.4Z"/>
      <path fill="currentColor" d="M138.1,78.61c-1.49,2.52-3.55,4.46-5.6,6.4.34-3.66,3.55-4.46,5.6-6.4Z"/>
      <path fill="currentColor" d="M164.63,30.34c1.94-.34,1.72,1.26,2.4,2.4-2.74-.23-2.17-2.06-2.4-2.4Z"/>
      <path fill="currentColor" d="M219.3,43.95s-1.49-.8-1.6-.8c.57-1.26,1.26-.11,1.6.8Z"/>
      <path fill="currentColor" d="M79.31,159.92c-2.4-2.29-4.8-4.23-6.4-7.21,1.6,2.06,5.15,4.57,6.4,7.21Z"/>
      <path fill="currentColor" d="M89.72,159.12c-2.4-.46-5.15-3.2-5.6-5.6,1.94,1.94,3.43,3.77,5.6,5.6Z"/>
      <path fill="currentColor" d="M226.62,48.07c-2.06-.57-3.89-2.4-5.6-3.2,2.74.11,3.89,1.83,5.6,3.2Z"/>
      <path fill="currentColor" d="M183.16,48.87c0-.69.34-1.14.8-1.6v1.14l-.8.46Z"/>
      <path fill="currentColor" d="M97.04,153.41c-2.17-.91-3.32-2.63-4.8-4,2.17.8,3.32,2.74,4.8,4Z"/>
      <path fill="currentColor" d="M26.93,67.28c-1.14,1.03-2.17,2.17-3.2,3.2,0-1.94,1.37-3.09,3.2-3.2Z"/>
      <path fill="currentColor" d="M43.86,93.93l-3.2-1.94-4.8-5.26c2.74,2.29,5.49,4.8,8.01,7.21Z"/>
      <path fill="currentColor" d="M27.73,66.48c.23-.91.91-1.14,1.6-1.6-.23.91-1.03,1.14-1.6,1.6Z"/>
      <path fill="currentColor" d="M188.76,64.88s-1.14-1.14-1.6-1.6l1.6,1.6Z"/>
      <path fill="currentColor" d="M85.72,166.33l-5.6-5.6c1.72,1.72,4,4.23,5.6,5.6Z"/>
      <path fill="currentColor" d="M216.9,153.41l3.2-3.2c-1.26,1.37-1.94,2.06-3.2,3.2Z"/>
    </symbol>
    <symbol id="red-cherries-cafe" viewBox="0 0 319.81 290.28">
      <g>
        <path fill="currentColor" d="M196.43,234.11c-34.52-1.24-61.64-29.97-59.2-63.96,1.73-24,19.45-42.36,44.18-40.44,11.46.67,21.57,5,31.73,10.95-5-7.12-11.66-11.91-19.5-15.95,7.17-9.54,18.13-15.4,30.24-16.2,14.28-.94,27.77,5.1,36.74,16.23,16.72,20.76,13.77,51.38.55,73.52-13.55,22.68-38.26,36.81-64.74,35.87Z"/>
        <path fill="currentColor" d="M126.69,152.04c-8.59,24.81-.4,53.02,21.13,68.73-3.1,1.74-5.71,3.07-8.76,4.12-21.86,7.49-45.66,3.85-64.52-9.46-21.27-15-33.51-39.46-29.88-65.69,1.42-10.29,5.8-19.54,12.76-27.09,14.95-16.21,39.37-18.65,57.04-6.24-4.69,3.74-8.68,7.39-11.78,11.91,17.33-10.82,39.94-18.71,58.18-7.37-16.71,4.19-28.74,15.44-34.17,31.1Z"/>
        <path fill="currentColor" d="M186.78,122.71c-1.84,1.07-4.93.41-6.82-.09-15.82-16.3-24.62-37.13-25.37-59.99-10.9,15.4-17.64,29.86-24.79,46.73l-8.86,2.49c-1-.14-2.32-1.53-2.75-2.68C139.67,53.04,182.77-7.12,250.88,1.91c-5.62,25.15-22.51,44.19-47.9,48.47-9.45,1.59-18.4,1.92-28.06-.28l7.2-10.02c8.46-9.96,18.76-17.38,30.07-23.99-18.02,5.51-33.17,16.85-45.3,31.17-4.79,25.69,3.99,52.03,23.18,70.12-.51,1.92-1.36,4.2-3.29,5.32Z"/>
        <path fill="currentColor" d="M16.37,288.85l-6.03-10.39-4.47-.19-.12,10.44-6.17-.03v-29.35s14.07.03,14.07.03c5.49.01,9.16,4.42,9.02,9.66-.11,3.79-1.86,6.99-5.62,8.48l6.42,11.05-7.09.3ZM12.52,272.71c2.43-.03,3.73-2.21,3.63-4.33-.1-1.93-1.77-3.38-4.02-3.39l-6.23-.03-.02,7.83,6.65-.08Z"/>
        <path fill="currentColor" d="M63.23,286.45c-3.62,3.94-9.61,3.59-13.1-.48-3.49-4.07-3.68-10.34-.64-14.73,3.25-4.7,9.34-5.5,13.75-1.68l.17-10.94,5.96.02.03,30-5.66.1-.51-2.29ZM63.44,278.25c-.02-2.34-.09-4.12-2.09-5.13-1.48-.74-3.57-1.07-5.18.06-3.25,2.29-3.39,7.54-.13,9.85,1.64,1.16,3.9,1.02,5.29.21,1.81-1.07,2.14-2.91,2.12-4.99Z"/>
        <path fill="currentColor" d="M83.09,281.99c4.47,3.05,9.67,1.43,11.74-3.14l5.35,2.61c-2.15,5.04-6.9,7.72-12.32,7.79-8.63.11-15.05-6.26-15.06-14.94,0-4.46,1.74-8.7,4.77-11.52,3.37-3.13,7.96-4.42,12.58-3.69,4.34.69,7.84,3.09,9.95,7.25l-5.49,2.61c-2.31-4.27-7.48-5.59-11.67-2.6-4.89,3.49-5.05,12.06.16,15.61Z"/>
        <path fill="currentColor" d="M241.78,280.1c1.7,2.62,4.4,3.4,7.12,3.34,2.78-.07,5.08-1.54,6.61-4.41l5.16,2.52c-2,4.83-6.58,7.62-11.95,7.73-7.16.15-13.07-4.32-14.75-11.29-1.47-6.12.73-12.56,5.56-16.1,6.61-4.84,16.99-4.06,21.34,4.23l-5.37,2.78c-2.57-4.42-8.15-5.51-12.2-2.16-3.81,3.15-4.29,9.07-1.51,13.36Z"/>
        <path fill="currentColor" d="M122.75,288.69l-6.05-.02c-.21-4.94.3-9.6-.42-14.24-.34-2.18-3.79-2.19-5.07-1.54-1.81.92-2.73,2.56-2.7,4.81l.14,10.97-6.04-.02.04-29.89,5.97-.16.15,11.13c2.94-2.15,5.93-3.22,9.39-2.09,2.43.79,4.53,3.13,4.54,5.94l.05,15.11Z"/>
        <path fill="currentColor" d="M307.43,283.76c3.14,1.44,6.06.35,8.39-1.45l3.08,3.39c-2.48,2.91-6.43,3.7-10.24,3.45-5.34-.36-9.28-4.17-9.83-9.46-.5-4.84,1.61-9.39,5.8-11.4,4.2-2.01,9.76-1.48,12.86,2.28,2.26,2.74,2.57,6.32,2.16,9.65l-14.76.05c.44,1.78,1.23,2.89,2.53,3.49ZM313.95,276.08c-.6-3.55-2.91-4.3-5.13-4.03-1.93.24-3.69,1.85-3.8,4.07l8.93-.04Z"/>
        <path fill="currentColor" d="M138.22,284.41c1.8-.25,3.18-1.19,4.61-2.17l3.07,3.55c-2.47,2.48-5.25,3.25-8.48,3.43-6.28.36-11.36-4.15-11.66-10.52-.2-4.22,1.97-8.18,5.32-10.07,3.65-2.06,8.19-2.12,11.6.44,3.49,2.61,4.65,7.05,4.03,11.14l-14.66.02c.51,2.91,2.94,4.64,6.16,4.19ZM141.1,276.16c-.4-3.01-2.57-4.3-4.87-4.16-2.05.12-3.9,1.8-4.12,4.14l9,.02Z"/>
        <path fill="currentColor" d="M200.18,284.08c2.9.82,5.31.13,7.67-1.78l3.12,3.68c-4.07,3.54-9.7,4.13-14.36,2.09-3.35-1.47-5.18-4.44-5.68-7.92-.72-5.01,1.35-9.79,5.76-11.86,4.17-1.97,9.7-1.52,12.8,2.34,2.19,2.73,2.43,6.26,2.31,9.59h-14.76c.06,1.76,1.35,3.36,3.15,3.87ZM206,276.08c-.58-3.56-2.93-4.35-5.13-4.07-2.02.26-3.89,1.86-3.75,4.17l8.88-.11Z"/>
        <path fill="currentColor" d="M37.02,284.4c1.79-.27,3.14-1.2,4.51-2.27l2.97,3.57c-4.56,4.95-13.49,4.61-17.62-.28-2.21-2.62-3.02-6.18-2.25-9.57.9-3.95,3.59-6.97,6.93-8.04,3.86-1.24,8.1-.7,10.91,2.17,2.62,2.68,3.49,6.46,2.95,10.23l-14.94.07c.88,3.22,3.42,4.59,6.52,4.12ZM39.81,276.07c-.63-3.4-2.8-4.18-5.11-4.01-1.99.15-3.76,1.76-4.07,4.11l9.18-.1Z"/>
        <path fill="currentColor" d="M264.19,287.46c-2.94-2.37-2.91-7.36-.14-9.63,3.23-2.65,7.4-2.71,11.35-1.08.22-.93.11-2.48-.5-3.29-2.13-2.88-6.44-.93-9.39.54l-2.36-3.64c3.55-2.78,7.68-3.78,12.12-2.86,3.31.68,6.13,3.25,6.15,6.9l.07,14.27-5.33.09-.69-1.76c-3.1,2.38-7.73,3.32-11.28.46ZM275.55,280.54c-2.08-.84-3.95-1.43-5.78-.63-1.22.53-2.01,2.18-1.65,3.29.64,1.94,4.34,2.3,6.76.62.63-.44.71-1.97.67-3.28Z"/>
        <path fill="currentColor" d="M226.63,288.67c-4.97,1.26-9.73.39-13.56-2.82l2.78-3.93c3.09,3.11,9.77,3.7,9.99.87.04-.48-.88-1.36-1.35-1.48l-5.44-1.42c-2.8-.73-4.66-2.86-4.86-5.35-.22-2.68,1.1-5.24,3.69-6.38,4.44-1.94,9.29-1.07,13.19,1.95l-2.33,3.59c-2.85-2.22-9-2.89-8.91-.02.09,2.92,13.5.59,11.65,10.1-.45,2.29-2.17,4.21-4.86,4.89Z"/>
        <path fill="currentColor" d="M292.81,272.87l-.12,15.82h-5.85s0-15.73,0-15.73l-3.52-.26v-4.82s3.51-.26,3.51-.26c.17-2.61.11-5.35,1.88-7.18,2.81-2.9,7.09-2.81,10.54-.89l-1.63,4.03c-1.24-.47-2.69-.84-3.52-.22-1.25.92-1.52,3.11-1.17,4.3l4.76.19.02,4.9-4.91.12Z"/>
        <path fill="currentColor" d="M178.79,272.91c-2.29.22-6.08.11-6.87,2.6l-.18,13.1-6.12.12.03-20.95h5.77s.35,2.24.35,2.24c2.14-1.44,3.89-2.43,6.88-2.7l.13,5.59Z"/>
        <path fill="currentColor" d="M149.85,288.72l.09-20.95,5.72.02.2,2.75c1.88-2.12,4.21-3.22,7.17-3.09v5.5c-2.41.08-6.33.1-6.78,2.71-.72,4.18-.15,8.22-.34,12.98l-6.06.09Z"/>
        <polygon fill="currentColor" points="187.47 288.69 181.43 288.68 181.46 267.81 187.39 267.81 187.47 288.69"/>
        <path fill="currentColor" d="M183.72,258.3c2.12-.51,3.84,1.03,4.14,2.5.44,2.18-.88,4.12-2.54,4.49-2.05.45-3.83-.66-4.36-2.35-.61-1.95.43-4.08,2.77-4.63Z"/>
      </g>
    </symbol>
    <symbol id="oceanbure" viewBox="0 0 425.19 290.28">
      <g>
        <path fill="currentColor" d="M176.31,208.38c31.07.45,60.94-1.79,90.89-8.17,17.25-3.67,33.95-8.38,49.78-16.04-33.19,8.07-90.22,15.93-115.68-11.35-8.13-8.72-10.5-20.35-7-31.71,2.45-7.95,7.14-14.05,13.15-20.05-20.52,11.46-32.73,32.24-49.75,47.78-19.61,17.9-46.97,23.29-71.93,14.5-10.28-3.62-19.61-7.82-28.47-15.25,18.68-.62,35.77-5.4,51.96-14.11,14.66-7.89,27.72-17.44,40.59-28.03,8.96-7.37,17.76-13.87,27.94-19.49,19.99-11.04,42.94-15.09,65.26-10.03,11.1,2.52,21.27,7.09,29.44,14.78,4.97,4.68,9.03,10.23,9.72,17.32-11.02-12.86-29.18-15.76-43.6-7.39-11.86,6.89-14.55,22.31-5.79,32.93,13.56,16.43,45.3,18.61,65.14,17.47l49.23-2.83c6.44-.37,12.25-.92,19.18-.59-10.33,7.6-20.16,14.73-31.27,21.06-66.1,37.62-144.24,44.34-215.45,14.86,19.08,1.71,37.12,4.07,56.65,4.36Z"/>
        <path fill="currentColor" d="M131.38,120.09c.51-1.29,1.34-2.52,2.45-3.59l26.95-25.85c11.65-11.18,22.54-22.42,32.85-34.93l-8.03,6.4c-19.18,17.79-39.92,33.17-62.44,46.67l-42.14-.12,38.55-22.78c22.53-14.08,44.09-28.92,64.69-45.67,8.01-6.52,15.3-12.87,22.28-20.47l-11.79-9.2c-.31-.24-.67-1.29-.79-1.5-.18-.32,1.22-.81,1.74-.6l12.3,5.15,2.53-12.56c.07-.32.68-1.1.91-1.02.24.08.92.75.99,1.1l2.41,12.46,12.33-5.15c.39-.16,1.79.08,1.84.45.07.46-.3,1.37-.74,1.7l-11.76,8.9c17.69,18.11,38.53,33.6,59.47,48.3,21.39,14.62,42.91,27.63,66.09,40.81l-46.44.17c-9.5-8.78-19.76-15.85-31.61-21.23-28.9-12.42-61.63-11.32-89.64,2.86-8.17,4.13-15.42,8.8-22.69,14.31l-20.32,15.41Z"/>
        <path fill="currentColor" d="M275.54,273.48c2.86,1.38,5.17,3.49,5.41,6.24.3,3.42-1.06,6-3.9,7.96-2.22.86-5.08,1.85-7.59,1.85h-20.47s-.02-30.83-.02-30.83l18.04-.08c5.67-.03,11.61,1.32,12.38,7.4.36,2.87-.82,5.38-3.85,7.47ZM269.15,270.99c2.03-.03,3.58-2.45,3.32-3.86-.23-1.23-2.04-3.18-3.44-3.18l-13.16.04v7.21s13.28-.2,13.28-.2ZM270.08,284.02c2.36-.02,4-2.45,3.75-4.23-.18-1.3-2.15-3.39-3.83-3.41l-14.09-.14.05,7.9,14.12-.12Z"/>
        <path fill="currentColor" d="M372.02,289.67l-8.81-10.66-8.58-.21-.12,10.64-6.81.13-.02-30.92,19.51.06c2.77,0,6.12,1.04,8.25,2.62,3.14,2.33,3.88,6.32,2.9,10.13-.82,3.18-3.49,5.78-7.87,6.85l10.1,11.11-8.55.25ZM371.79,268.34c-.15-2.22-2.12-4.17-4.61-4.2l-12.5-.12-.11,9.47c5.06-.58,17.74,2.38,17.23-5.16Z"/>
        <path fill="currentColor" d="M28.74,288.4c-6.35,2.65-13.34,2.41-19.41-.17C3.38,285.7-.03,280.28,0,274.25s3.38-11.49,9.26-14.16c6.31-2.87,13.53-2.96,19.86-.04,5.81,2.68,9.39,8.07,9.22,14.19-.16,6-3.52,11.62-9.6,14.16ZM25.04,283.5c4.26-1.79,6.44-5.7,6.32-9.71s-2.75-7.73-6.82-9.23c-3.99-1.47-8.26-1.43-11.99.6-3.47,1.89-5.51,5.34-5.44,9.09.06,3.4,1.93,6.89,5.22,8.64,3.89,2.06,8.41,2.41,12.7.61Z"/>
        <path fill="currentColor" d="M230.48,289.47l-5.72-.04-20.22-20.49-.21,20.58-6.59-.05-.04-30.69c2.04-.16,4.29-.16,5.83.14l20.05,20.25.18-20.46,6.65.04.07,30.71Z"/>
        <path fill="currentColor" d="M127.62,276.31l-17.43.09-.02,7.63,20.08.06c.5,1.42.5,3.6.22,5.45l-27.17.03-.04-30.9,26.98.02.06,5.29-20.12.11-.13,7,17.46.16.11,5.06Z"/>
        <polygon fill="currentColor" points="420.6 276.31 403.23 276.39 403.13 283.96 423.52 284.13 423.5 289.54 396.24 289.57 396.17 258.68 423.28 258.69 423.32 263.98 403.2 264.03 403.11 271.12 420.45 271.26 420.6 276.31"/>
        <path fill="currentColor" d="M172.42,283.1l-18.15.06-3.32,6.41-7.37-.23,16.69-30.55,6.62-.05,16.29,30.7-7.52.13-3.23-6.46ZM169.68,277.63l-6.18-11.89-6.27,11.83,12.45.07Z"/>
        <path fill="currentColor" d="M322.58,258.73h6.8s-.17,19.82-.17,19.82c-.05,5.19-3.93,9.3-8.71,10.67-5.01,1.44-10.08,1.3-15.05-.32-4.52-1.47-7.96-5.75-8-10.71l-.15-19.46h6.81s.11,18.69.11,18.69c.01,2.08,1.56,4.74,3.35,5.73,3.17,1.76,6.63,1.92,9.99.82,2.74-.9,4.97-3.6,4.98-6.62l.06-18.64Z"/>
        <path fill="currentColor" d="M65.96,283.06c5.64,2.87,11.65,1.81,16.56-1.98,1.82,1.19,3.44,2.5,4.68,4.08-7.69,6.14-18.55,6.7-26.8,1.87-4.74-2.77-6.93-7.81-6.96-12.78-.02-5.03,2.12-10.05,6.73-12.9,8.41-5.19,19.26-4.57,26.91,1.74l-4.67,3.98c-4.62-3.37-9.94-4.4-15.27-2.52-3.95,1.39-6.43,4.87-6.72,8.86-.27,3.77,1.61,7.66,5.54,9.66Z"/>
        <path fill="currentColor" d="M110.3,133.81c-4.25,3.3-8.72,6.13-13.72,9.04l-.02-29.41,13.54.07.2,20.3Z"/>
        <polygon fill="currentColor" points="326.99 142.77 313.24 132.2 313.19 113.36 326.99 113.35 326.99 142.77"/>
      </g>
    </symbol>
    <symbol id="quiet-fret" viewBox="0 0 425.19 290.28">
      <g>
        <path fill="currentColor" d="M164.36,166.63l-2.07,108.52-117.03-56.32,2.82-153.42L167.17,13.52l-1.92,106.09c16.54-5.54,26.22-20.28,27.8-36.88l1.45-76.22,41.13.87-5.16,276.39-41.09-.67,1.35-76.21c.12-6.76-1.8-12.92-4.02-18.99-4.56-9.3-11.03-17.02-22.35-21.27ZM122.7,209.71l2.44-132.28-36.81,16.02-1.61,98.97,35.97,17.29Z"/>
        <path fill="currentColor" d="M377.06,224.95l-119.2,52,4.9-261.83,117.18,56.6-2.88,153.24ZM336.62,197.13l1.81-99.05-36-17.29-2.46,132.24,36.65-15.91Z"/>
      </g>
    </symbol>
    <symbol id="bula-jewelry" viewBox="0 0 425.19 290.28">
      <g>
        <path fill="currentColor" d="M216.65,279.72c-.47,1.78-2.49,3.52-3.6,3.78-1.27.3-3.86-1.46-4.31-3.13l-15.62-58.05c-3.69-13.72-3.57-26.98,1.61-40.26,6.28-16.1,17.19-28.96,31.78-38.49l73.1-44.61,35.03-21.06c.57,14.84.45,28.08.12,42.25-.08,3.63-2.58,6.68-5.88,8.1l-59.78,36.28c-17.44,10.59-29.21,26.75-34.4,46.51l-18.05,68.68Z"/>
        <path fill="currentColor" d="M237.41,72.83c-16.61-4.02-32.1,7.27-34.72,23.65-2.15,13.43,3.69,25.84,15.88,33.97-18.19,10.96-29.68,26.33-39.11,46.44l-23.37-62.32c-1.55-4.13-1.52-8.25.4-12.05l16.18-30.69c1.44-2.74,4.78-4.74,7.96-4.74l62.49.02c3.35,0,7.39,1.47,8.97,4.35,3.39,6.17,7.77,12.1,9.69,18.9,2.12,7.54-3.85,15.34-9.02,19.33-6.42,4.95-14.77,5.8-22.01,2.48-3.81-1.75-6.73-5.43-7.69-8.67-1.25-4.22-.46-8.77,2.57-11.87,5.38-5.5,13.6-3.58,18.47,2.33,3.33-3.22,4.03-8.06,2.6-12.91-.94-3.18-4.41-7.03-9.28-8.21Z"/>
        <path fill="currentColor" d="M245.69,51.59l-66.64.09c-2.49-.51-5.99-1.64-7.48-3.71l-29.6-41.12,141.29-.09-29.72,40.97c-1.62,2.24-4.76,3.32-7.85,3.86Z"/>
        <path fill="currentColor" d="M249.24,217.16c4.2-16.8,13.38-30.34,27.68-39.39l26.94-16.22.43,12.57,15.26.1.33-21.99c3.99-3.79,8.84-6.51,14.89-8.88.48,16.34.53,31.77-.1,47.86-.18,4.52-2.16,8.91-5.83,11.58l-92.95,67.73,13.36-53.36ZM261.48,232.46l24.69-17.74,32.84-24.43-29.87-.17c-2.44-.01-5.39,1.31-7.55,2.52-13.16,10.7-16.5,23.21-20.11,39.81Z"/>
        <path fill="currentColor" d="M143.27,125.4c6.44,16.23,12.1,31.74,17.31,47.83h-70.53s.06-92.94.06-92.94l38.3,27.28c5.94,4.97,11.8,10.12,14.86,17.84ZM130.59,134.23c-3.94-11.16-15.68-17.43-25.18-23.44v47.13s33.52-.09,33.52-.09l-8.34-23.61Z"/>
        <path fill="currentColor" d="M141.35,97.62l-47.7-34.24c-1.06-1.8-.76-4.83.72-6.63l34.03-41.56,28.94,39.3c2.27,3.48,2.55,7.64.85,11.36l-16.83,31.77Z"/>
        <path fill="currentColor" d="M135.42,188.64l26.18-.03c3.74,0,6.69,2.17,7.76,5.63,4.05,13.2,7.41,26.04,10.78,39.45l9.35,37.15-94.48-68.96c-4.13-3.01-4.53-8.32-4.89-13.2l13.37.29,60.24,43.86c-1.67-8.51-3.81-16.21-6.1-24.3-2.47-8.75-14.62-1.28-18.89-7.05-2.57-3.47-2.84-7.97-3.32-12.85Z"/>
        <path fill="currentColor" d="M286.86,88.41c-1.41.86-3.91,1.45-5.02,1.4-1.27-.06-3.22-1.94-3.93-3.25l-11.26-21.03c-1.35-3.23-1.72-7.4.49-10.42l29.34-40.13,33.92,41.64c.57.7,1.3,2.67,1.16,3.49-.14.82-1.39,2.04-2.33,2.61l-42.38,25.7Z"/>
      </g>
    </symbol>
  </defs>
</svg>